<mxfile host="Electron" agent="Mozilla/5.0 (Macintosh; Intel Mac OS X 10_15_7) AppleWebKit/537.36 (KHTML, like Gecko) draw.io/27.0.9 Chrome/134.0.6998.205 Electron/35.4.0 Safari/537.36" version="27.0.9">
  <diagram id="h7L9gdeFRkXItuEfLJFP" name="UrlShortner">
    <mxGraphModel dx="1185" dy="613" grid="1" gridSize="10" guides="1" tooltips="1" connect="1" arrows="1" fold="1" page="1" pageScale="1" pageWidth="850" pageHeight="1100" math="0" shadow="0">
      <root>
        <mxCell id="0" />
        <mxCell id="1" parent="0" />
        <mxCell id="PgAaaRnjPKssM0RfisyV-1" style="edgeStyle=orthogonalEdgeStyle;rounded=0;orthogonalLoop=1;jettySize=auto;html=1;entryX=0;entryY=0.5;entryDx=0;entryDy=0;" edge="1" parent="1" source="PgAaaRnjPKssM0RfisyV-2" target="PgAaaRnjPKssM0RfisyV-10">
          <mxGeometry relative="1" as="geometry" />
        </mxCell>
        <mxCell id="PgAaaRnjPKssM0RfisyV-2" value="Client" style="whiteSpace=wrap;html=1;aspect=fixed;" vertex="1" parent="1">
          <mxGeometry x="70" y="390" width="80" height="80" as="geometry" />
        </mxCell>
        <mxCell id="PgAaaRnjPKssM0RfisyV-3" style="edgeStyle=orthogonalEdgeStyle;rounded=0;orthogonalLoop=1;jettySize=auto;html=1;exitX=1;exitY=0.75;exitDx=0;exitDy=0;entryX=0;entryY=0.5;entryDx=0;entryDy=0;" edge="1" parent="1" source="PgAaaRnjPKssM0RfisyV-4" target="PgAaaRnjPKssM0RfisyV-16">
          <mxGeometry relative="1" as="geometry">
            <mxPoint x="620" y="510.36363636363626" as="targetPoint" />
          </mxGeometry>
        </mxCell>
        <mxCell id="PgAaaRnjPKssM0RfisyV-4" value="Write&amp;nbsp;&lt;div&gt;&lt;span style=&quot;background-color: initial;&quot;&gt;Service (s)&lt;/span&gt;&lt;br&gt;&lt;/div&gt;" style="whiteSpace=wrap;html=1;aspect=fixed;" vertex="1" parent="1">
          <mxGeometry x="485" y="450" width="80" height="80" as="geometry" />
        </mxCell>
        <mxCell id="PgAaaRnjPKssM0RfisyV-5" value="DB" style="shape=cylinder3;whiteSpace=wrap;html=1;boundedLbl=1;backgroundOutline=1;size=15;" vertex="1" parent="1">
          <mxGeometry x="720" y="380" width="60" height="80" as="geometry" />
        </mxCell>
        <mxCell id="PgAaaRnjPKssM0RfisyV-6" value="Redis Cache" style="ellipse;whiteSpace=wrap;html=1;aspect=fixed;" vertex="1" parent="1">
          <mxGeometry x="670" y="250" width="70" height="70" as="geometry" />
        </mxCell>
        <mxCell id="PgAaaRnjPKssM0RfisyV-7" style="edgeStyle=orthogonalEdgeStyle;rounded=0;orthogonalLoop=1;jettySize=auto;html=1;entryX=0.333;entryY=0.005;entryDx=0;entryDy=0;entryPerimeter=0;curved=1;startArrow=classic;" edge="1" parent="1" source="PgAaaRnjPKssM0RfisyV-6" target="PgAaaRnjPKssM0RfisyV-5">
          <mxGeometry relative="1" as="geometry" />
        </mxCell>
        <mxCell id="PgAaaRnjPKssM0RfisyV-8" value="Read&amp;nbsp;&lt;div&gt;Service (s)&lt;/div&gt;" style="whiteSpace=wrap;html=1;aspect=fixed;" vertex="1" parent="1">
          <mxGeometry x="490" y="290" width="80" height="80" as="geometry" />
        </mxCell>
        <mxCell id="PgAaaRnjPKssM0RfisyV-9" style="edgeStyle=orthogonalEdgeStyle;rounded=0;orthogonalLoop=1;jettySize=auto;html=1;exitX=1;exitY=0.5;exitDx=0;exitDy=0;entryX=0;entryY=0.5;entryDx=0;entryDy=0;startArrow=classic;" edge="1" parent="1" source="PgAaaRnjPKssM0RfisyV-10" target="PgAaaRnjPKssM0RfisyV-15">
          <mxGeometry relative="1" as="geometry" />
        </mxCell>
        <mxCell id="PgAaaRnjPKssM0RfisyV-10" value="API Gateway (Entry point)" style="whiteSpace=wrap;html=1;aspect=fixed;" vertex="1" parent="1">
          <mxGeometry x="210" y="390" width="80" height="80" as="geometry" />
        </mxCell>
        <mxCell id="PgAaaRnjPKssM0RfisyV-11" style="edgeStyle=orthogonalEdgeStyle;rounded=0;orthogonalLoop=1;jettySize=auto;html=1;exitX=0.994;exitY=0.147;exitDx=0;exitDy=0;entryX=0;entryY=0.5;entryDx=0;entryDy=0;entryPerimeter=0;exitPerimeter=0;" edge="1" parent="1" source="PgAaaRnjPKssM0RfisyV-4" target="PgAaaRnjPKssM0RfisyV-5">
          <mxGeometry relative="1" as="geometry">
            <Array as="points">
              <mxPoint x="610" y="462" />
              <mxPoint x="610" y="420" />
            </Array>
          </mxGeometry>
        </mxCell>
        <mxCell id="PgAaaRnjPKssM0RfisyV-12" style="edgeStyle=orthogonalEdgeStyle;rounded=0;orthogonalLoop=1;jettySize=auto;html=1;entryX=0.039;entryY=0.414;entryDx=0;entryDy=0;entryPerimeter=0;startArrow=classic;exitX=1;exitY=0.25;exitDx=0;exitDy=0;curved=1;" edge="1" parent="1" source="PgAaaRnjPKssM0RfisyV-8" target="PgAaaRnjPKssM0RfisyV-6">
          <mxGeometry relative="1" as="geometry" />
        </mxCell>
        <mxCell id="PgAaaRnjPKssM0RfisyV-13" style="edgeStyle=orthogonalEdgeStyle;rounded=0;orthogonalLoop=1;jettySize=auto;html=1;startArrow=classic;entryX=0;entryY=0.5;entryDx=0;entryDy=0;" edge="1" parent="1">
          <mxGeometry relative="1" as="geometry">
            <mxPoint x="430" y="430.0003092783505" as="sourcePoint" />
            <mxPoint x="490" y="329.99" as="targetPoint" />
            <Array as="points">
              <mxPoint x="460" y="429.99" />
              <mxPoint x="460" y="329.99" />
            </Array>
          </mxGeometry>
        </mxCell>
        <mxCell id="PgAaaRnjPKssM0RfisyV-14" style="edgeStyle=orthogonalEdgeStyle;rounded=0;orthogonalLoop=1;jettySize=auto;html=1;entryX=0;entryY=0.5;entryDx=0;entryDy=0;" edge="1" parent="1" source="PgAaaRnjPKssM0RfisyV-15" target="PgAaaRnjPKssM0RfisyV-4">
          <mxGeometry relative="1" as="geometry">
            <Array as="points">
              <mxPoint x="460" y="430" />
              <mxPoint x="460" y="490" />
            </Array>
          </mxGeometry>
        </mxCell>
        <mxCell id="PgAaaRnjPKssM0RfisyV-15" value="Load Balancer" style="whiteSpace=wrap;html=1;aspect=fixed;shape=process;backgroundOutline=1;" vertex="1" parent="1">
          <mxGeometry x="350" y="390" width="80" height="80" as="geometry" />
        </mxCell>
        <mxCell id="PgAaaRnjPKssM0RfisyV-16" value="Global Counter (Redis)" style="ellipse;whiteSpace=wrap;html=1;aspect=fixed;" vertex="1" parent="1">
          <mxGeometry x="630" y="470" width="80" height="80" as="geometry" />
        </mxCell>
      </root>
    </mxGraphModel>
  </diagram>
</mxfile>
